<?xml version="1.0" encoding="UTF-8"?>
<svg width="24px" height="19px" viewBox="0 0 24 19" version="1.1" xmlns="http://www.w3.org/2000/svg" xmlns:xlink="http://www.w3.org/1999/xlink">
    <!-- Generator: Sketch 47 (45396) - http://www.bohemiancoding.com/sketch -->
    <title>hd</title>
    <desc>Created with Sketch.</desc>
    <defs></defs>
    <g id="Page-1" stroke="none" stroke-width="1" fill="none" fill-rule="evenodd">
        <g id="hd" fill-rule="nonzero" fill="#000000">
            <path d="M6.69772308,6.11907692 L5.49366154,6.11907692 C5.43969231,6.11907692 5.39593846,6.16283077 5.39593846,6.21686154 L5.39593846,6.64615385 C5.39593846,6.70018462 5.43969231,6.74393846 5.49366154,6.74393846 L6.17070769,6.74393846 L6.17070769,10.1531077 C6.17070769,10.2070769 6.21446154,10.2508923 6.26843077,10.2508923 L6.69778462,10.2508923 C6.75175385,10.2508923 6.79550769,10.2071385 6.79550769,10.1531077 L6.79550769,6.2168 C6.79544615,6.16283077 6.75169231,6.11907692 6.69772308,6.11907692 Z" id="Shape"></path>
            <path d="M9.06018462,6.11907692 C8.53433846,6.11907692 8.10246154,6.30953846 7.81126154,6.66978462 C7.52098462,7.02892308 7.37390769,7.53778462 7.37390769,8.18246154 C7.37390769,8.82861538 7.52104615,9.33883077 7.81113846,9.69889231 C8.10233846,10.0600615 8.53421538,10.2510769 9.06018462,10.2510769 C9.58769231,10.2510769 10.0207385,10.0601231 10.3128,9.69907692 C10.6038769,9.33895385 10.7516308,8.8288 10.7516308,8.18246154 C10.7516308,7.53772308 10.6039385,7.0288 10.3128,6.66966154 C10.0208,6.30947692 9.58763077,6.11907692 9.06018462,6.11907692 Z M9.06018462,9.62603077 C8.35587692,9.62603077 7.99876923,9.14024615 7.99876923,8.1824 C7.99876923,7.22787692 8.35587692,6.74393846 9.06018462,6.74393846 C9.76787692,6.74393846 10.1267692,7.22793846 10.1267692,8.1824 C10.1267692,9.14036923 9.76787692,9.62603077 9.06018462,9.62603077 Z" id="Shape"></path>
            <path d="M13.3515692,8.02904615 C13.5737846,7.82873846 13.6902769,7.55778462 13.6902769,7.23723077 C13.6902769,6.54750769 13.1787692,6.11907692 12.3553846,6.11907692 C11.5286769,6.11907692 11.0152,6.54750769 11.0152,7.23723077 C11.0152,7.55778462 11.1316923,7.82873846 11.3539077,8.02904615 C11.0275692,8.24972308 10.8499692,8.58541538 10.8499692,8.98812308 C10.8499692,9.76701538 11.4267692,10.2508923 12.3555077,10.2508923 C13.2808615,10.2508923 13.8558769,9.76707692 13.8558769,8.98812308 C13.8556308,8.58541538 13.6779077,8.24972308 13.3515692,8.02904615 Z M12.3552615,6.74387692 C12.6204308,6.74387692 13.0654769,6.80923077 13.0654769,7.24750769 C13.0654769,7.69476923 12.6204308,7.76153846 12.3552615,7.76153846 C12.088,7.76153846 11.6398769,7.69476923 11.6398769,7.24750769 C11.6398769,6.80935385 12.0881231,6.74387692 12.3552615,6.74387692 Z M12.3552615,9.62603077 C12.0262154,9.62603077 11.4744615,9.54178462 11.4744615,8.97778462 C11.4744615,8.60190769 11.7936,8.38633846 12.3500923,8.38633846 C12.9097231,8.38633846 13.2307692,8.60381538 13.2307692,8.98295385 C13.2307692,9.54246154 12.6822154,9.62603077 12.3552615,9.62603077 Z" id="Shape"></path>
            <path d="M15.64,6.11907692 C15.1141538,6.11907692 14.6822769,6.30953846 14.3910769,6.66978462 C14.1007385,7.02892308 13.9537231,7.53778462 13.9537231,8.18246154 C13.9537231,8.82861538 14.1008615,9.33883077 14.3910769,9.69889231 C14.6820923,10.0600615 15.1139692,10.2510769 15.64,10.2510769 C16.1673846,10.2510769 16.6005538,10.0601231 16.8925538,9.69907692 C17.1837538,9.33895385 17.3313846,8.8288 17.3313846,8.18246154 C17.3313846,7.53772308 17.1839385,7.0288 16.8925538,6.66966154 C16.6006154,6.30947692 16.1674462,6.11907692 15.64,6.11907692 Z M15.64,9.62603077 C14.9356923,9.62603077 14.5785846,9.14024615 14.5785846,8.1824 C14.5785846,7.22787692 14.9356923,6.74393846 15.64,6.74393846 C16.3478154,6.74393846 16.7065846,7.22793846 16.7065846,8.1824 C16.7065846,9.14036923 16.3478154,9.62603077 15.64,9.62603077 Z" id="Shape"></path>
            <path d="M21.5597538,2.92049231 L21.1596308,2.92049231 L20.9688615,4.05556923 L21.3691077,4.05556923 C21.6925538,4.05556923 21.9984615,3.80147692 22.0509538,3.48916923 C22.1036308,3.17563077 21.8832,2.92049231 21.5597538,2.92049231 Z" id="Shape"></path>
            <path d="M23.7638154,3.00627692 L20.9971077,0.239384615 C20.7310154,-0.0266461538 20.2995077,-0.0266461538 20.0334154,0.239384615 L19.4354462,0.837292308 L1.82953846,0.837292308 C0.820738462,0.837292308 0,1.65803077 0,2.66689231 L0,13.7862769 C0,14.7952 0.806953846,15.6158154 1.79876923,15.6158154 L8.456,15.6158154 L7.73138462,17.2462769 C7.61993846,17.4967385 7.64289231,17.7865231 7.79230769,18.0165538 C7.94172308,18.2464 8.19723077,18.3850462 8.47138462,18.3850462 L14.256,18.3850462 C14.2563692,18.3850462 14.2568615,18.3849846 14.2572308,18.3850462 C14.7046154,18.3850462 15.0670769,18.0224 15.0670769,17.5752 C15.0670769,17.4417846 15.0348308,17.3158769 14.9776615,17.2048615 L14.2713846,15.6158154 L20.8669538,15.6158154 C21.8928,15.6158154 22.7273846,14.7950769 22.7273846,13.7862769 L22.7273846,5.00646154 L23.7638154,3.96990769 C24.0300308,3.70375385 24.0300308,3.27243077 23.7638154,3.00627692 Z M18.8744,2.60184615 C18.8809846,2.56209231 18.9187692,2.52984615 18.9585231,2.52984615 L19.2051692,2.52984615 C19.2449231,2.52984615 19.2717538,2.56209231 19.2650462,2.60184615 L19.1504,3.28498462 L19.9350154,3.28498462 L20.0496615,2.60184615 C20.0563692,2.56209231 20.0941538,2.52984615 20.1337846,2.52984615 L20.3804308,2.52984615 C20.4201846,2.52984615 20.4470154,2.56209231 20.4404308,2.60184615 L20.1427077,4.3744 C20.1361231,4.41415385 20.0982154,4.4464 20.0585846,4.4464 L19.8119385,4.4464 C19.7721846,4.4464 19.7453538,4.41415385 19.7519385,4.3744 L19.8692308,3.67569231 L19.0847385,3.67569231 L18.9673231,4.3744 C18.9607385,4.41415385 18.9229538,4.4464 18.8833231,4.4464 L18.6365538,4.4464 C18.5968,4.4464 18.5699692,4.41415385 18.5765538,4.3744 L18.8744,2.60184615 Z M9.71753846,16.7654769 L10.2284923,15.6159385 L12.4990154,15.6159385 L13.0100308,16.7654769 L9.71753846,16.7654769 Z M21.1076923,13.7864 C21.1076923,13.9081231 21.0064615,13.9962462 20.8669538,13.9962462 L1.79876923,13.9962462 C1.71593846,13.9962462 1.61969231,13.9046154 1.61969231,13.7864 L1.61969231,2.66689231 C1.61969231,2.55113846 1.71378462,2.45698462 1.82953846,2.45698462 L17.8158154,2.45698462 L17.2665231,3.00627692 C17.0004308,3.27236923 17.0004308,3.70369231 17.2665231,3.96984615 L20.0333538,6.73673846 C20.1665231,6.86978462 20.3408,6.93630769 20.5152,6.93630769 C20.6894769,6.93630769 20.8638769,6.86978462 20.9970462,6.73673846 L21.1076308,6.62621538 L21.1076923,13.7864 L21.1076923,13.7864 Z M22.4416,3.48929231 C22.3531077,4.01698462 21.8424615,4.44646154 21.3035077,4.44646154 L20.5846154,4.44646154 C20.5448615,4.44646154 20.5181538,4.41421538 20.5247385,4.37446154 L20.8224615,2.60190769 C20.8291077,2.56215385 20.8668308,2.52990769 20.9065846,2.52990769 L21.6253538,2.52990769 C22.1643077,2.52984615 22.5304,2.96018462 22.4416,3.48929231 Z" id="Shape"></path>
        </g>
    </g>
</svg>