<?xml version="1.0" encoding="UTF-8"?>
<svg width="900px" height="150px" viewBox="0 0 900 150" version="1.1" xmlns="http://www.w3.org/2000/svg" xmlns:xlink="http://www.w3.org/1999/xlink">
    <!-- Generator: Sketch 47 (45396) - http://www.bohemiancoding.com/sketch -->
    <title>visionaire_logo</title>
    <desc>Created with Sketch.</desc>
    <defs></defs>
    <g id="Page-1" stroke="none" stroke-width="1" fill="none" fill-rule="evenodd">
        <g id="visionaire_logo" fill-rule="nonzero" fill="#FFFFFF">
            <path d="M178.8,61.86 L178.8,61.86 C176.51,59.58 174.43,57.5 172.61,55.6 C170.52,53.43 168.76,51.49 167.34,49.77 C166.41305,48.6552547 165.548399,47.4901457 164.75,46.28 C163.913056,45.0638616 163.240564,43.7424132 162.75,42.35 C162.380005,41.2137854 162.197615,40.0248752 162.21,38.83 C162.187092,37.1400411 162.50686,35.4629639 163.15,33.9 C163.562836,32.9208339 164.122607,32.0103642 164.81,31.2 C165.835054,29.9999091 167.112008,29.0404865 168.55,28.39 C170.102282,27.6896909 171.787078,27.3315866 173.49,27.34 C174.467571,27.3391703 175.439277,27.4909993 176.37,27.79 C177.290244,28.0909471 178.172734,28.4969596 179,29 C180.879706,30.165853 182.58922,31.5859613 184.08,33.22 C184.9,34.09 185.7,35.04 186.49,36.04 L203.95,17.04 C202.314641,15.1852507 200.560978,13.4382675 198.7,11.81 C195.427759,8.93758466 191.739242,6.57747362 187.76,4.81 C185.585837,3.8427833 183.321531,3.09248092 181,2.57 C178.543114,2.03140207 176.035229,1.75982619 173.52,1.76 C163.923901,1.70104413 154.680264,5.37268293 147.74,12 C144.250614,15.3704044 141.478446,19.4113075 139.59,23.88 C137.599695,28.5948534 136.579408,33.6622815 136.59,38.78 C136.587499,41.0982462 136.801765,43.4116483 137.23,45.69 C137.59979,47.6430946 138.128207,49.5627876 138.81,51.43 C139.975444,54.5697973 141.502385,57.5632723 143.36,60.35 C146.146809,64.4422087 149.285378,68.2834434 152.74,71.83 C156.07,75.36 159.74,78.96 163.74,82.97 L164.4,83.63 L168.15,87.38 L168.15,87.38 C170.44,89.66 172.52,91.74 174.34,93.64 C176.43,95.81 178.19,97.75 179.61,99.47 C180.53695,100.584745 181.401601,101.749854 182.2,102.96 C183.036944,104.176138 183.709436,105.497587 184.2,106.89 C184.569995,108.026215 184.752385,109.215125 184.74,110.41 C184.762908,112.099959 184.44314,113.777036 183.8,115.34 C183.387164,116.319166 182.827393,117.229636 182.14,118.04 C181.114946,119.240091 179.837992,120.199513 178.4,120.85 C176.86765,121.579192 175.19676,121.97134 173.5,122 C172.522429,122.00083 171.550723,121.849001 170.62,121.55 C169.707537,121.25398 168.831864,120.854727 168.01,120.36 C166.130294,119.194147 164.42078,117.774039 162.93,116.14 C161.579194,114.692511 160.323249,113.159322 159.17,111.55 L158.78,110.99 L141.2,130.09 C141.693333,130.696667 142.203333,131.3 142.73,131.9 C144.463087,133.895413 146.330789,135.769798 148.32,137.51 C151.592241,140.382415 155.280758,142.742526 159.26,144.51 C161.438474,145.467574 163.706129,146.207828 166.03,146.72 C168.486898,147.258521 170.994776,147.530096 173.51,147.53 C183.099257,147.565124 192.327611,143.875934 199.25,137.24 C202.739386,133.869596 205.511554,129.828693 207.4,125.36 C209.390305,120.645147 210.410592,115.577718 210.4,110.46 C210.403066,108.138416 210.188798,105.821643 209.76,103.54 C209.390167,101.586915 208.86175,99.6672259 208.18,97.8 C207.014556,94.6602027 205.487615,91.6667277 203.63,88.88 C200.843191,84.7877913 197.704622,80.9465566 194.25,77.4 C190.92,73.87 187.25,70.27 183.25,66.26 L182.59,65.6 L178.8,61.86 Z" id="Shape"></path>
            <polygon id="Shape" points="46.51 3.87 36.38 57.73 26.05 3.87 0 3.87 27.27 145.99 45.82 145.99 72.54 3.87"></polygon>
            <path d="M650.86,3.87 L637.3,3.87 L613.29,146 L639.24,146 L641.07,135.17 L659.86,135.17 L661.72,146 L687.72,146 L663.17,3.87 L650.86,3.87 Z M655.44,109.58 L645.38,109.58 L650.38,80.12 L655.44,109.58 Z" id="Shape"></path>
            <polygon id="Shape" points="118.3 3.87 92.71 3.87 92.71 145.99 118.3 145.99 118.3 114.92 118.3 91.62"></polygon>
            <polygon id="Shape" points="228.5 3.81 228.5 30.08 228.5 53.68 228.5 145.75 254.08 145.75 254.08 3.81"></polygon>
            <polygon id="Shape" points="731.09 145.99 731.09 3.88 705.5 3.88 705.5 145.99 710.35 145.99"></polygon>
            <polygon id="Shape" points="900 119.43 871.82 119.43 871.82 87.7 897.66 87.7 897.66 62.12 871.82 62.12 871.82 30.13 900 30.13 900 17.34 900 4.55 900 4.55 846.23 4.55 846.23 145.01 900 145.01 900 119.43"></polygon>
            <path d="M389.37,13.67 C354.854766,-9.30298269 308.296114,-0.373012057 284.73,33.74 C270.414991,54.5687241 267.77288,81.2804719 277.73,104.51 C286.517898,124.757086 303.740346,140.13375 324.85,146.58 C341.849437,151.759161 360.119721,150.875514 376.54,144.08 C389.967981,138.495662 401.496823,129.15105 409.74,117.17 C424.055009,96.3412759 426.69712,69.6295281 416.74,46.4 C410.982184,33.0675774 401.473093,21.6962742 389.37,13.67 Z M393.25,94.4 C389.460444,103.167663 383.207482,110.646901 375.25,115.93 C371.215248,118.611446 366.812698,120.693141 362.18,122.11 C350.873696,125.549751 338.72493,124.966695 327.8,120.46 C318.928791,116.77178 311.310597,110.60153 305.86,102.69 C296.522699,89.0972543 294.798011,71.6692216 301.29,56.51 C305.079556,47.7423366 311.332518,40.2630989 319.29,34.98 C323.324752,32.2985541 327.727302,30.2168587 332.36,28.8 C343.666304,25.3602489 355.81507,25.9433049 366.74,30.45 C375.611209,34.1382195 383.229403,40.3084701 388.68,48.22 C398.017301,61.8127457 399.741989,79.2407784 393.25,94.4 L393.25,94.4 Z" id="Shape"></path>
            <polygon id="Shape" points="466.23 145.99 466.23 118.12 466.23 64.37 478.4 91.1 503.41 145.99 530.53 145.99 530.53 118.33 530.53 63.96 542.94 91 568.18 145.99 595.29 145.99 595.29 3.87 569.7 3.87 569.7 3.87 569.7 32.05 569.7 87.98 556.94 60.17 531.1 3.87 530.49 3.87 504.91 3.87 504.91 3.87 504.91 32.27 504.91 87.57 492.38 60.07 466.78 3.87 440.65 3.87 440.65 145.99 449.55 145.99"></polygon>
            <path d="M809.54,105.32 C811.054111,103.852826 812.483109,102.300293 813.82,100.67 C818.139793,95.3807487 821.521999,89.3908617 823.82,82.96 C826.233213,76.2214463 827.467924,69.1176323 827.47,61.96 C827.482301,54.5956045 826.23429,47.2834093 823.78,40.34 C822.029689,35.3836604 819.63947,30.6771808 816.67,26.34 C812.350733,19.964254 806.683914,14.6149138 800.07,10.67 C796.750332,8.71372737 793.195074,7.18812498 789.49,6.13 C785.690719,5.0494291 781.759958,4.50087255 777.81,4.5 L752.17,4.5 L752.17,146 L777.75,146 L777.75,118.85 L778.08,118.85 C781.107316,118.842776 784.124935,118.507485 787.08,117.85 L807.72,148.75 L818.36,141.64 L829,134.48 L809.54,105.32 Z M777.75,30.07 L777.81,30.07 C779.219471,30.0698932 780.623516,30.2445591 781.99,30.59 C784.572342,31.2680898 786.997625,32.4433671 789.13,34.05 C790.992335,35.4213756 792.672508,37.0242606 794.13,38.82 C796.58006,41.8777969 798.484619,45.3350949 799.76,49.04 C801.194333,53.1788195 801.92117,57.5297017 801.91,61.91 C801.909657,66.200742 801.158321,70.4583129 799.69,74.49 C798.66837,77.3235997 797.283481,80.0127034 795.57,82.49 C793.32487,85.7739806 790.402727,88.539276 787,90.6 C785.553823,91.4584042 784.004859,92.1304059 782.39,92.6 C780.901943,93.0341725 779.360099,93.2563596 777.81,93.26 L777.75,93.26 L777.75,30.07 Z" id="Shape"></path>
        </g>
    </g>
</svg>